<svg xmlns="http://www.w3.org/2000/svg" version="1.1" xmlns:xlink="http://www.w3.org/1999/xlink" xmlns:svgjs="http://svgjs.dev/svgjs" width="1920" height="800" preserveAspectRatio="none" viewBox="0 0 1920 800"><g mask="url(&quot;#SvgjsMask1629&quot;)" fill="none"><rect width="1920" height="800" x="0" y="0" fill="rgba(0, 0, 0, 1)"></rect><use xlink:href="#SvgjsG1635" transform="translate(0, 0)" fill="rgba(255, 255, 255, 1)"></use><use xlink:href="#SvgjsG1635" transform="translate(0, 540)" fill="rgba(255, 255, 255, 1)"></use><use xlink:href="#SvgjsG1635" transform="translate(540, 0)" fill="rgba(255, 255, 255, 1)"></use><use xlink:href="#SvgjsG1635" transform="translate(540, 540)" fill="rgba(255, 255, 255, 1)"></use><use xlink:href="#SvgjsG1635" transform="translate(1080, 0)" fill="rgba(255, 255, 255, 1)"></use><use xlink:href="#SvgjsG1635" transform="translate(1080, 540)" fill="rgba(255, 255, 255, 1)"></use><use xlink:href="#SvgjsG1635" transform="translate(1620, 0)" fill="rgba(255, 255, 255, 1)"></use><use xlink:href="#SvgjsG1635" transform="translate(1620, 540)" fill="rgba(255, 255, 255, 1)"></use></g><defs><mask id="SvgjsMask1629"><rect width="1920" height="800" fill="#ffffff"></rect></mask><g id="SvgjsG1634"><path d="M0.796 8.738c0-0.081 0.053-0.167 0.161-0.24l0.312-0.212c0.117-0.079 0.175-0.183 0.175-0.286 0-0.104-0.059-0.208-0.175-0.287l-0.312-0.211c-0.108-0.074-0.161-0.159-0.161-0.241 0-0.094 0.071-0.182 0.211-0.238l0.349-0.142c0.156-0.063 0.238-0.178 0.237-0.303 0-0.086-0.038-0.176-0.118-0.258L1.214 6.048c-0.076-0.078-0.112-0.157-0.112-0.228 0-0.111 0.091-0.2 0.261-0.23l0.371-0.066c0.192-0.034 0.301-0.158 0.301-0.31 0-0.068-0.021-0.141-0.067-0.214l-0.2-0.32c-0.045-0.073-0.066-0.141-0.066-0.2 0-0.135 0.112-0.224 0.308-0.217l0.376 0.012c0.224 0.008 0.365-0.123 0.366-0.31 0-0.048-0.009-0.1-0.029-0.154l-0.128-0.355a0.448 0.448 0 0 1-0.03-0.151c0-0.171 0.137-0.261 0.353-0.206l0.365 0.09c0.25 0.062 0.432-0.077 0.432-0.314 0-0.022-0.002-0.045-0.005-0.069l-0.053-0.375a0.536 0.536 0 0 1-0.005-0.073c0-0.227 0.166-0.322 0.395-0.21l0.339 0.165c0.253 0.123 0.477-0.006 0.497-0.286l0.027-0.376c0.02-0.281 0.218-0.37 0.44-0.196l0.298 0.231c0.222 0.173 0.467 0.093 0.545-0.177l0.104-0.362c0.078-0.271 0.29-0.316 0.472-0.101l0.243 0.289c0.181 0.216 0.438 0.189 0.57-0.06l0.177-0.333c0.133-0.248 0.35-0.248 0.483 0l0.177 0.333c0.133 0.249 0.389 0.276 0.57 0.06l0.243-0.289c0.181-0.216 0.393-0.171 0.472 0.101l0.104 0.362c0.078 0.27 0.324 0.35 0.545 0.177l0.298-0.232c0.222-0.173 0.42-0.085 0.44 0.196l0.027 0.376c0.02 0.28 0.243 0.409 0.497 0.287l0.339-0.165c0.229-0.112 0.395-0.017 0.395 0.21 0 0.023-0.002 0.047-0.005 0.073l-0.053 0.374a0.496 0.496 0 0 0-0.005 0.07c0 0.237 0.181 0.376 0.432 0.313l0.366-0.09c0.216-0.054 0.352 0.036 0.352 0.206 0 0.045-0.01 0.096-0.03 0.152l-0.128 0.354a0.445 0.445 0 0 0-0.029 0.154c0 0.187 0.142 0.318 0.366 0.31l0.376-0.012c0.196-0.007 0.308 0.082 0.308 0.217 0 0.059-0.021 0.127-0.066 0.2l-0.2 0.32c-0.046 0.074-0.067 0.147-0.067 0.214 0 0.152 0.109 0.276 0.301 0.31l0.37 0.066c0.17 0.03 0.261 0.119 0.262 0.23 0 0.07-0.036 0.149-0.112 0.228L14.525 6.318c-0.08 0.082-0.118 0.173-0.118 0.259 0 0.125 0.082 0.24 0.237 0.303l0.35 0.141c0.14 0.056 0.211 0.145 0.211 0.239 0 0.081-0.053 0.167-0.162 0.241l-0.311 0.21c-0.117 0.079-0.176 0.183-0.175 0.287 0 0.104 0.059 0.208 0.175 0.286l0.312 0.212c0.108 0.073 0.162 0.159 0.161 0.24 0 0.094-0.071 0.182-0.211 0.24l-0.349 0.14c-0.156 0.063-0.238 0.178-0.238 0.303 0 0.086 0.038 0.176 0.118 0.259l0.262 0.272c0.075 0.078 0.112 0.157 0.111 0.227 0 0.111-0.091 0.2-0.261 0.231l-0.37 0.066c-0.192 0.034-0.301 0.157-0.302 0.309 0 0.068 0.022 0.141 0.068 0.215l0.2 0.32c0.045 0.073 0.067 0.141 0.066 0.2 0 0.135-0.112 0.224-0.308 0.218l-0.376-0.014c-0.224-0.007-0.366 0.123-0.366 0.311 0 0.048 0.009 0.1 0.029 0.154l0.128 0.353a0.448 0.448 0 0 1 0.03 0.152c0 0.171-0.136 0.26-0.352 0.207l-0.366-0.091c-0.25-0.062-0.432 0.077-0.432 0.314 0 0.022 0.002 0.046 0.005 0.07l0.053 0.373c0.004 0.026 0.005 0.05 0.005 0.074 0 0.226-0.166 0.322-0.395 0.209l-0.34-0.164c-0.253-0.123-0.477 0.006-0.496 0.287l-0.027 0.376c-0.02 0.281-0.218 0.369-0.441 0.195l-0.297-0.231c-0.222-0.173-0.467-0.093-0.546 0.177l-0.104 0.362c-0.078 0.271-0.29 0.316-0.471 0.101l-0.243-0.288c-0.181-0.216-0.438-0.188-0.57 0.059l-0.177 0.333c-0.133 0.249-0.35 0.249-0.483 0l-0.177-0.333c-0.133-0.248-0.389-0.276-0.57-0.059l-0.243 0.288c-0.182 0.216-0.394 0.171-0.472-0.1l-0.104-0.363c-0.078-0.27-0.323-0.35-0.545-0.176l-0.298 0.231c-0.222 0.173-0.42 0.086-0.44-0.195l-0.027-0.376c-0.019-0.281-0.243-0.41-0.497-0.288l-0.339 0.165c-0.229 0.112-0.395 0.017-0.395-0.209 0-0.023 0.002-0.048 0.005-0.074l0.053-0.373c0.003-0.024 0.005-0.047 0.004-0.07 0-0.237-0.181-0.376-0.431-0.314l-0.366 0.091c-0.216 0.053-0.352-0.037-0.352-0.207 0-0.045 0.009-0.096 0.03-0.151l0.128-0.354c0.02-0.054 0.029-0.106 0.029-0.154 0-0.187-0.142-0.318-0.366-0.311l-0.377 0.013c-0.196 0.006-0.308-0.083-0.308-0.217 0-0.059 0.021-0.127 0.067-0.2l0.2-0.32c0.046-0.074 0.067-0.147 0.067-0.215 0-0.152-0.109-0.276-0.301-0.309L1.363 10.408c-0.17-0.03-0.261-0.119-0.261-0.23 0-0.07 0.036-0.149 0.112-0.228l0.262-0.272c0.079-0.082 0.118-0.173 0.118-0.258 0-0.125-0.082-0.24-0.238-0.303l-0.349-0.141c-0.14-0.057-0.211-0.146-0.211-0.239z"></path></g><g id="SvgjsG1630"><path d="M5.534 5.272L8.008 0l2.474 5.272 5.534 0.845-4.004 4.103 0.945 5.795L8.008 13.279 3.06 16.015l0.945-5.795L0.001 6.117z"></path></g><g id="SvgjsG1633"><path d="M15.233 9.431c0.295 0 0.569-0.239 0.61-0.532 0 0 0.056-0.411 0.056-0.899s-0.056-0.899-0.056-0.899c-0.041-0.292-0.315-0.531-0.61-0.53h-1.524c-0.295 0-0.602-0.188-0.681-0.418s-0.188-0.967 0.021-1.176l1.078-1.077c0.209-0.209 0.225-0.565 0.036-0.792l-1.268-1.268c-0.227-0.189-0.583-0.173-0.792 0.036l-1.078 1.077c-0.208 0.209-0.556 0.293-0.772 0.187s-0.822-0.552-0.821-0.847V0.767c0-0.295-0.239-0.569-0.531-0.61 0 0-0.411-0.057-0.9-0.056s-0.899 0.057-0.899 0.056c-0.293 0.04-0.532 0.315-0.532 0.61v1.524c0 0.295-0.188 0.601-0.418 0.681s-0.967 0.188-1.176-0.021l-1.078-1.078C3.689 1.665 3.333 1.649 3.107 1.837l-1.268 1.268c-0.189 0.227-0.173 0.583 0.036 0.792l1.077 1.078c0.209 0.209 0.293 0.556 0.187 0.772s-0.552 0.822-0.847 0.822H0.767c-0.295 0-0.569 0.239-0.61 0.531 0 0-0.057 0.411-0.056 0.899s0.057 0.899 0.056 0.9c0.04 0.293 0.315 0.532 0.61 0.532h1.525c0.295 0 0.601 0.188 0.681 0.417 0.079 0.23 0.188 0.967-0.02 1.176l-1.078 1.077C1.667 12.311 1.651 12.667 1.84 12.893l1.267 1.268c0.227 0.189 0.583 0.173 0.792-0.036l1.077-1.077c0.209-0.208 0.556-0.292 0.772-0.187s0.821 0.553 0.822 0.848v1.524c0 0.295 0.239 0.569 0.532 0.61 0 0 0.411 0.057 0.899 0.057s0.899-0.056 0.899-0.057c0.293-0.04 0.531-0.315 0.532-0.609v-1.524c0-0.295 0.188-0.602 0.418-0.681 0.23-0.079 0.967-0.188 1.176 0.021l1.077 1.077c0.209 0.209 0.565 0.225 0.792 0.036l1.268-1.267c0.189-0.227 0.173-0.583-0.036-0.792l-1.078-1.077c-0.209-0.209-0.293-0.557-0.186-0.773 0.106-0.216 0.552-0.822 0.847-0.822h1.525zM8 10.892c-1.597 0-2.891-1.294-2.891-2.892 0-1.596 1.295-2.891 2.891-2.891S10.892 6.404 10.892 8 9.597 10.892 8 10.892z"></path></g><g id="SvgjsG1631"><path d="M7.648 0h0.716v2.72H7.648V0z m-0.042 13.226h0.715v2.72h-0.715v-2.72z m5.674-5.779H16v0.714H13.28v-0.714zM0 7.403h2.72v0.716H0V7.403zM1.036 4.064l0.347-0.625 2.376 1.318-0.347 0.626L1.036 4.064z m2.852-2.908l0.606-0.381 1.443 2.308-0.606 0.377-1.443-2.304zM10.357 12.627l0.617-0.356 1.36 2.356-0.618 0.357-1.359-2.357z m2.079-1.903l0.347-0.624 2.38 1.317-0.349 0.627-2.378-1.32zM4.336 15.016l-0.625-0.347 1.318-2.38 0.627 0.346L4.336 15.016zM1.175 11.994L0.798 11.388l2.306-1.443 0.378 0.606-2.307 1.443zM12.692 5.611l-0.359-0.621 2.355-1.36 0.359 0.621-2.355 1.36zM10.873 3.572l-0.627-0.348 1.319-2.377 0.626 0.347-1.318 2.378z m-7.283 4.392c0-2.44 1.979-4.419 4.419-4.419 2.438 0 4.415 1.979 4.415 4.419S10.447 12.381 8.009 12.381c-2.44 0-4.419-1.977-4.419-4.417"></path></g><g id="SvgjsG1632"><path d="M12.865 12.36c-3.667 0-6.639-2.973-6.639-6.639 0-2.102 0.978-3.975 2.503-5.192-3.976 0.149-7.153 3.416-7.153 7.428 0 4.106 3.328 7.434 7.435 7.434 2.66 0 4.993-1.399 6.308-3.502a6.601 6.601 0 0 1-2.455 0.471z"></path></g><g id="SvgjsG1635"><use xlink:href="#SvgjsG1630" transform="translate(0, 0) scale(3)" fill="rgba(255, 255, 255, 1)"></use><use xlink:href="#SvgjsG1631" transform="translate(0, 54) scale(3)" fill="rgba(255, 255, 255, 1)"></use><use xlink:href="#SvgjsG1630" transform="translate(0, 108) scale(3)" fill="rgba(255, 255, 255, 1)"></use><use xlink:href="#SvgjsG1632" transform="translate(0, 162) scale(3)" fill="rgba(255, 255, 255, 1)"></use><use xlink:href="#SvgjsG1631" transform="translate(0, 216) scale(3)" fill="rgba(255, 255, 255, 1)"></use><use xlink:href="#SvgjsG1632" transform="translate(0, 270) scale(3)" fill="rgba(255, 255, 255, 1)"></use><use xlink:href="#SvgjsG1633" transform="translate(0, 324) scale(3)" fill="rgba(255, 255, 255, 1)"></use><use xlink:href="#SvgjsG1634" transform="translate(0, 378) scale(3)" fill="rgba(255, 255, 255, 1)"></use><use xlink:href="#SvgjsG1634" transform="translate(0, 432) scale(3)" fill="rgba(255, 255, 255, 1)"></use><use xlink:href="#SvgjsG1630" transform="translate(0, 486) scale(3)" fill="rgba(255, 255, 255, 1)"></use><use xlink:href="#SvgjsG1631" transform="translate(54, 0) scale(3)" fill="rgba(255, 255, 255, 1)"></use><use xlink:href="#SvgjsG1634" transform="translate(54, 54) scale(3)" fill="rgba(255, 255, 255, 1)"></use><use xlink:href="#SvgjsG1632" transform="translate(54, 108) scale(3)" fill="rgba(255, 255, 255, 1)"></use><use xlink:href="#SvgjsG1631" transform="translate(54, 162) scale(3)" fill="rgba(255, 255, 255, 1)"></use><use xlink:href="#SvgjsG1634" transform="translate(54, 216) scale(3)" fill="rgba(255, 255, 255, 1)"></use><use xlink:href="#SvgjsG1634" transform="translate(54, 270) scale(3)" fill="rgba(255, 255, 255, 1)"></use><use xlink:href="#SvgjsG1634" transform="translate(54, 324) scale(3)" fill="rgba(255, 255, 255, 1)"></use><use xlink:href="#SvgjsG1631" transform="translate(54, 378) scale(3)" fill="rgba(255, 255, 255, 1)"></use><use xlink:href="#SvgjsG1632" transform="translate(54, 432) scale(3)" fill="rgba(255, 255, 255, 1)"></use><use xlink:href="#SvgjsG1631" transform="translate(54, 486) scale(3)" fill="rgba(255, 255, 255, 1)"></use><use xlink:href="#SvgjsG1631" transform="translate(108, 0) scale(3)" fill="rgba(255, 255, 255, 1)"></use><use xlink:href="#SvgjsG1632" transform="translate(108, 54) scale(3)" fill="rgba(255, 255, 255, 1)"></use><use xlink:href="#SvgjsG1631" transform="translate(108, 108) scale(3)" fill="rgba(255, 255, 255, 1)"></use><use xlink:href="#SvgjsG1631" transform="translate(108, 162) scale(3)" fill="rgba(255, 255, 255, 1)"></use><use xlink:href="#SvgjsG1630" transform="translate(108, 216) scale(3)" fill="rgba(255, 255, 255, 1)"></use><use xlink:href="#SvgjsG1631" transform="translate(108, 270) scale(3)" fill="rgba(255, 255, 255, 1)"></use><use xlink:href="#SvgjsG1631" transform="translate(108, 324) scale(3)" fill="rgba(255, 255, 255, 1)"></use><use xlink:href="#SvgjsG1632" transform="translate(108, 378) scale(3)" fill="rgba(255, 255, 255, 1)"></use><use xlink:href="#SvgjsG1631" transform="translate(108, 432) scale(3)" fill="rgba(255, 255, 255, 1)"></use><use xlink:href="#SvgjsG1632" transform="translate(108, 486) scale(3)" fill="rgba(255, 255, 255, 1)"></use><use xlink:href="#SvgjsG1634" transform="translate(162, 0) scale(3)" fill="rgba(255, 255, 255, 1)"></use><use xlink:href="#SvgjsG1633" transform="translate(162, 54) scale(3)" fill="rgba(255, 255, 255, 1)"></use><use xlink:href="#SvgjsG1634" transform="translate(162, 108) scale(3)" fill="rgba(255, 255, 255, 1)"></use><use xlink:href="#SvgjsG1630" transform="translate(162, 162) scale(3)" fill="rgba(255, 255, 255, 1)"></use><use xlink:href="#SvgjsG1631" transform="translate(162, 216) scale(3)" fill="rgba(255, 255, 255, 1)"></use><use xlink:href="#SvgjsG1633" transform="translate(162, 270) scale(3)" fill="rgba(255, 255, 255, 1)"></use><use xlink:href="#SvgjsG1633" transform="translate(162, 324) scale(3)" fill="rgba(255, 255, 255, 1)"></use><use xlink:href="#SvgjsG1633" transform="translate(162, 378) scale(3)" fill="rgba(255, 255, 255, 1)"></use><use xlink:href="#SvgjsG1630" transform="translate(162, 432) scale(3)" fill="rgba(255, 255, 255, 1)"></use><use xlink:href="#SvgjsG1634" transform="translate(162, 486) scale(3)" fill="rgba(255, 255, 255, 1)"></use><use xlink:href="#SvgjsG1634" transform="translate(216, 0) scale(3)" fill="rgba(255, 255, 255, 1)"></use><use xlink:href="#SvgjsG1632" transform="translate(216, 54) scale(3)" fill="rgba(255, 255, 255, 1)"></use><use xlink:href="#SvgjsG1634" transform="translate(216, 108) scale(3)" fill="rgba(255, 255, 255, 1)"></use><use xlink:href="#SvgjsG1633" transform="translate(216, 162) scale(3)" fill="rgba(255, 255, 255, 1)"></use><use xlink:href="#SvgjsG1632" transform="translate(216, 216) scale(3)" fill="rgba(255, 255, 255, 1)"></use><use xlink:href="#SvgjsG1632" transform="translate(216, 270) scale(3)" fill="rgba(255, 255, 255, 1)"></use><use xlink:href="#SvgjsG1632" transform="translate(216, 324) scale(3)" fill="rgba(255, 255, 255, 1)"></use><use xlink:href="#SvgjsG1634" transform="translate(216, 378) scale(3)" fill="rgba(255, 255, 255, 1)"></use><use xlink:href="#SvgjsG1633" transform="translate(216, 432) scale(3)" fill="rgba(255, 255, 255, 1)"></use><use xlink:href="#SvgjsG1630" transform="translate(216, 486) scale(3)" fill="rgba(255, 255, 255, 1)"></use><use xlink:href="#SvgjsG1634" transform="translate(270, 0) scale(3)" fill="rgba(255, 255, 255, 1)"></use><use xlink:href="#SvgjsG1634" transform="translate(270, 54) scale(3)" fill="rgba(255, 255, 255, 1)"></use><use xlink:href="#SvgjsG1633" transform="translate(270, 108) scale(3)" fill="rgba(255, 255, 255, 1)"></use><use xlink:href="#SvgjsG1633" transform="translate(270, 162) scale(3)" fill="rgba(255, 255, 255, 1)"></use><use xlink:href="#SvgjsG1634" transform="translate(270, 216) scale(3)" fill="rgba(255, 255, 255, 1)"></use><use xlink:href="#SvgjsG1634" transform="translate(270, 270) scale(3)" fill="rgba(255, 255, 255, 1)"></use><use xlink:href="#SvgjsG1634" transform="translate(270, 324) scale(3)" fill="rgba(255, 255, 255, 1)"></use><use xlink:href="#SvgjsG1633" transform="translate(270, 378) scale(3)" fill="rgba(255, 255, 255, 1)"></use><use xlink:href="#SvgjsG1630" transform="translate(270, 432) scale(3)" fill="rgba(255, 255, 255, 1)"></use><use xlink:href="#SvgjsG1634" transform="translate(270, 486) scale(3)" fill="rgba(255, 255, 255, 1)"></use><use xlink:href="#SvgjsG1634" transform="translate(324, 0) scale(3)" fill="rgba(255, 255, 255, 1)"></use><use xlink:href="#SvgjsG1633" transform="translate(324, 54) scale(3)" fill="rgba(255, 255, 255, 1)"></use><use xlink:href="#SvgjsG1634" transform="translate(324, 108) scale(3)" fill="rgba(255, 255, 255, 1)"></use><use xlink:href="#SvgjsG1630" transform="translate(324, 162) scale(3)" fill="rgba(255, 255, 255, 1)"></use><use xlink:href="#SvgjsG1632" transform="translate(324, 216) scale(3)" fill="rgba(255, 255, 255, 1)"></use><use xlink:href="#SvgjsG1631" transform="translate(324, 270) scale(3)" fill="rgba(255, 255, 255, 1)"></use><use xlink:href="#SvgjsG1633" transform="translate(324, 324) scale(3)" fill="rgba(255, 255, 255, 1)"></use><use xlink:href="#SvgjsG1634" transform="translate(324, 378) scale(3)" fill="rgba(255, 255, 255, 1)"></use><use xlink:href="#SvgjsG1631" transform="translate(324, 432) scale(3)" fill="rgba(255, 255, 255, 1)"></use><use xlink:href="#SvgjsG1631" transform="translate(324, 486) scale(3)" fill="rgba(255, 255, 255, 1)"></use><use xlink:href="#SvgjsG1634" transform="translate(378, 0) scale(3)" fill="rgba(255, 255, 255, 1)"></use><use xlink:href="#SvgjsG1632" transform="translate(378, 54) scale(3)" fill="rgba(255, 255, 255, 1)"></use><use xlink:href="#SvgjsG1634" transform="translate(378, 108) scale(3)" fill="rgba(255, 255, 255, 1)"></use><use xlink:href="#SvgjsG1634" transform="translate(378, 162) scale(3)" fill="rgba(255, 255, 255, 1)"></use><use xlink:href="#SvgjsG1632" transform="translate(378, 216) scale(3)" fill="rgba(255, 255, 255, 1)"></use><use xlink:href="#SvgjsG1631" transform="translate(378, 270) scale(3)" fill="rgba(255, 255, 255, 1)"></use><use xlink:href="#SvgjsG1634" transform="translate(378, 324) scale(3)" fill="rgba(255, 255, 255, 1)"></use><use xlink:href="#SvgjsG1631" transform="translate(378, 378) scale(3)" fill="rgba(255, 255, 255, 1)"></use><use xlink:href="#SvgjsG1632" transform="translate(378, 432) scale(3)" fill="rgba(255, 255, 255, 1)"></use><use xlink:href="#SvgjsG1633" transform="translate(378, 486) scale(3)" fill="rgba(255, 255, 255, 1)"></use><use xlink:href="#SvgjsG1633" transform="translate(432, 0) scale(3)" fill="rgba(255, 255, 255, 1)"></use><use xlink:href="#SvgjsG1633" transform="translate(432, 54) scale(3)" fill="rgba(255, 255, 255, 1)"></use><use xlink:href="#SvgjsG1633" transform="translate(432, 108) scale(3)" fill="rgba(255, 255, 255, 1)"></use><use xlink:href="#SvgjsG1633" transform="translate(432, 162) scale(3)" fill="rgba(255, 255, 255, 1)"></use><use xlink:href="#SvgjsG1634" transform="translate(432, 216) scale(3)" fill="rgba(255, 255, 255, 1)"></use><use xlink:href="#SvgjsG1630" transform="translate(432, 270) scale(3)" fill="rgba(255, 255, 255, 1)"></use><use xlink:href="#SvgjsG1631" transform="translate(432, 324) scale(3)" fill="rgba(255, 255, 255, 1)"></use><use xlink:href="#SvgjsG1633" transform="translate(432, 378) scale(3)" fill="rgba(255, 255, 255, 1)"></use><use xlink:href="#SvgjsG1634" transform="translate(432, 432) scale(3)" fill="rgba(255, 255, 255, 1)"></use><use xlink:href="#SvgjsG1633" transform="translate(432, 486) scale(3)" fill="rgba(255, 255, 255, 1)"></use><use xlink:href="#SvgjsG1634" transform="translate(486, 0) scale(3)" fill="rgba(255, 255, 255, 1)"></use><use xlink:href="#SvgjsG1633" transform="translate(486, 54) scale(3)" fill="rgba(255, 255, 255, 1)"></use><use xlink:href="#SvgjsG1634" transform="translate(486, 108) scale(3)" fill="rgba(255, 255, 255, 1)"></use><use xlink:href="#SvgjsG1630" transform="translate(486, 162) scale(3)" fill="rgba(255, 255, 255, 1)"></use><use xlink:href="#SvgjsG1631" transform="translate(486, 216) scale(3)" fill="rgba(255, 255, 255, 1)"></use><use xlink:href="#SvgjsG1631" transform="translate(486, 270) scale(3)" fill="rgba(255, 255, 255, 1)"></use><use xlink:href="#SvgjsG1632" transform="translate(486, 324) scale(3)" fill="rgba(255, 255, 255, 1)"></use><use xlink:href="#SvgjsG1633" transform="translate(486, 378) scale(3)" fill="rgba(255, 255, 255, 1)"></use><use xlink:href="#SvgjsG1631" transform="translate(486, 432) scale(3)" fill="rgba(255, 255, 255, 1)"></use><use xlink:href="#SvgjsG1633" transform="translate(486, 486) scale(3)" fill="rgba(255, 255, 255, 1)"></use></g></defs></svg>